<?xml version="1.0" standalone="no"?>
<!DOCTYPE svg PUBLIC "-//W3C//DTD SVG 20010904//EN"
 "http://www.w3.org/TR/2001/REC-SVG-20010904/DTD/svg10.dtd">
<svg version="1.0" xmlns="http://www.w3.org/2000/svg"
 width="548.000000pt" height="548.000000pt" viewBox="0 0 548.000000 548.000000"
 preserveAspectRatio="xMidYMid meet">
<metadata>
Created by potrace 1.14, written by Peter Selinger 2001-2017
</metadata>
<g transform="translate(0.000000,548.000000) scale(0.100000,-0.100000)"
fill="#000000" stroke="none">
<path d="M2517 4373 c-23 -22 13 -107 54 -128 29 -16 88 -20 90 -7 0 4 2 16 4
27 6 29 -22 79 -54 98 -29 17 -82 23 -94 10z"/>
<path d="M2654 4220 c-83 -33 -84 -177 -2 -211 52 -22 99 -15 132 17 52 53 51
127 -4 177 -32 28 -82 35 -126 17z"/>
<path d="M2615 3883 c-169 -69 -224 -276 -109 -413 96 -114 262 -124 374 -23
77 69 104 168 74 272 -38 134 -210 217 -339 164z"/>
<path d="M2135 3618 c-62 -138 -55 -327 18 -458 48 -87 121 -163 257 -268 131
-101 201 -161 250 -214 l45 -48 51 53 c51 52 87 82 286 241 210 166 287 312
275 516 -5 79 -34 185 -60 218 -6 8 -40 12 -104 12 -87 0 -94 -2 -88 -17 32
-75 40 -117 34 -182 -11 -120 -61 -195 -207 -307 -48 -37 -110 -89 -138 -116
l-50 -49 -27 30 c-15 17 -80 73 -145 124 -181 145 -230 227 -219 372 3 40 12
86 21 103 9 17 16 33 16 37 0 3 -43 5 -96 5 l-95 0 -24 -52z"/>
<path d="M4708 2366 c-18 -19 -25 -35 -23 -57 3 -38 21 -57 62 -65 26 -5 37
-1 57 19 45 45 24 111 -39 123 -24 4 -36 0 -57 -20z"/>
<path d="M10 2318 c1 -7 62 -166 138 -353 l137 -340 50 -2 c84 -4 88 -1 119
79 15 40 36 92 47 115 10 24 19 49 19 56 0 7 4 17 9 23 9 9 171 415 171 428 0
4 -30 6 -66 4 l-67 -3 -98 -240 c-54 -132 -103 -249 -107 -259 -6 -15 -22 15
-71 135 -35 85 -83 202 -108 262 l-45 107 -64 0 c-45 0 -64 -4 -64 -12z"/>
<path d="M1940 2245 l0 -85 -36 0 -35 0 3 -47 c3 -45 4 -47 33 -48 l30 0 5
-171 c5 -168 5 -171 33 -207 44 -57 87 -74 177 -68 14 0 42 11 62 24 l37 22
-25 43 -25 42 -27 -18 c-32 -23 -69 -19 -96 8 -18 17 -20 35 -21 162 -1 79 0
148 2 153 2 6 27 10 56 10 80 -2 85 1 83 48 l-2 42 -70 5 -69 5 1 70 c0 39 -2
76 -4 83 -3 7 -24 12 -58 12 l-54 0 0 -85z"/>
<path d="M953 2160 c-90 -20 -172 -102 -194 -192 -33 -140 28 -275 151 -331
88 -40 237 -20 308 41 l32 27 -33 37 c-34 37 -34 37 -54 17 -26 -27 -98 -47
-151 -43 -49 4 -102 33 -126 69 -35 54 -34 54 192 57 l207 3 -1 60 c-1 33 -6
78 -13 101 -14 51 -70 110 -129 136 -48 22 -137 30 -189 18z m162 -122 c31
-21 55 -61 55 -93 0 -9 -40 -12 -150 -12 l-150 0 0 23 c0 33 47 82 95 99 51
19 107 13 150 -17z"/>
<path d="M1520 2158 c-108 -29 -163 -143 -108 -224 25 -37 55 -53 158 -90 88
-32 114 -55 98 -89 -22 -48 -102 -50 -194 -5 -36 17 -67 30 -68 28 -23 -31
-46 -80 -41 -88 22 -35 173 -80 249 -74 124 10 201 112 166 219 -16 50 -61 79
-172 115 -67 21 -99 37 -103 49 -20 65 84 91 190 47 21 -9 38 -16 40 -16 1 0
10 18 20 40 18 39 18 41 -1 54 -48 36 -165 52 -234 34z"/>
<path d="M2484 2160 c-52 -11 -113 -36 -136 -57 -18 -16 -15 -23 28 -82 2 -2
25 7 51 20 26 13 73 25 105 27 53 4 59 2 88 -26 20 -21 30 -40 30 -61 l0 -31
-87 -1 c-103 -1 -123 -3 -180 -25 -52 -19 -79 -54 -88 -115 -17 -113 76 -201
202 -193 56 4 143 37 143 55 0 22 19 6 22 -18 3 -26 6 -28 53 -28 l50 0 2 193
c1 116 -2 205 -9 225 -13 38 -52 83 -89 102 -34 18 -133 26 -185 15z m166
-333 c0 -72 -73 -126 -155 -113 -68 11 -95 45 -81 102 9 35 48 49 150 51 l86
3 0 -43z"/>
<path d="M3133 2150 c-21 -9 -50 -30 -65 -45 l-28 -28 -1 24 c-1 13 -1 32 0
42 2 14 -7 17 -57 17 l-60 0 1 -270 0 -270 57 1 58 2 0 166 c0 136 3 173 16
199 32 62 119 93 179 63 58 -29 67 -64 67 -259 l0 -172 58 2 57 3 0 185 c0
243 -15 294 -103 336 -50 24 -131 26 -179 4z"/>
<path d="M3716 2153 c-66 -19 -150 -102 -166 -164 -17 -59 -16 -136 0 -195 10
-35 28 -63 64 -99 52 -51 100 -74 175 -80 75 -7 185 30 224 73 18 20 18 21
-13 56 l-32 35 -26 -25 c-26 -24 -52 -32 -124 -38 -64 -6 -145 45 -163 102
l-6 22 210 0 211 0 0 56 c0 120 -45 201 -137 244 -59 28 -151 33 -217 13z
m171 -106 c34 -18 63 -62 63 -96 0 -19 -7 -20 -151 -19 l-150 1 6 26 c22 90
141 135 232 88z"/>
<path d="M4298 2155 c-60 -20 -89 -44 -108 -88 -20 -46 -18 -98 5 -133 20 -31
70 -60 155 -88 91 -31 115 -52 101 -88 -20 -52 -99 -55 -195 -8 -67 34 -67 34
-102 -32 -13 -25 -12 -27 21 -47 121 -71 275 -73 348 -5 36 33 47 63 47 124 0
81 -53 127 -190 164 -75 21 -100 39 -93 67 16 59 98 64 215 15 23 -10 64 66
44 83 -49 41 -180 60 -248 36z"/>
<path d="M5100 2154 c-30 -8 -72 -26 -93 -40 l-38 -25 22 -32 c13 -18 24 -34
25 -36 2 -2 25 7 51 20 35 18 65 24 111 24 57 0 66 -3 88 -28 14 -16 24 -41
24 -58 l0 -29 -87 -1 c-111 -1 -138 -5 -191 -31 -48 -22 -82 -76 -82 -128 0
-38 24 -98 49 -121 70 -66 195 -72 283 -14 l37 24 3 -27 c3 -25 6 -27 56 -28
l53 -1 -1 194 c-2 207 -7 241 -49 287 -52 57 -161 78 -261 50z m190 -319 c0
-77 -55 -124 -140 -120 -77 4 -111 40 -96 101 9 35 48 49 150 51 l86 3 0 -35z"/>
<path d="M4699 2153 c-1 -11 -1 -494 0 -516 1 -15 9 -18 56 -16 42 2 55 6 56
18 0 23 0 394 0 464 l-1 57 -55 0 c-30 0 -55 -3 -56 -7z"/>
<path d="M2931 1514 c-78 -23 -131 -80 -145 -157 -2 -15 -8 -36 -11 -48 -6
-19 -3 -20 51 -17 l58 3 12 49 c16 62 41 88 87 89 26 1 41 -5 55 -23 15 -18
30 -25 63 -25 54 -2 69 8 63 43 -6 31 -29 59 -64 77 -36 19 -121 23 -169 9z"/>
<path d="M2516 1501 c-25 -28 -225 -384 -220 -392 3 -5 25 -8 50 -7 36 0 48 6
64 27 11 14 24 31 28 37 5 5 42 10 83 9 l74 0 3 -33 c4 -35 25 -46 78 -40 33
3 34 9 20 116 -7 54 -11 62 -29 63 -19 1 -19 2 -4 6 16 4 18 12 13 51 -3 26
-9 70 -12 97 -10 78 -16 84 -79 84 -37 -1 -58 -6 -69 -18z m58 -132 c2 -13 5
-36 5 -51 1 -17 7 -28 19 -30 9 -3 -9 -5 -40 -5 -32 0 -58 2 -58 5 0 9 62 113
66 109 2 -2 6 -14 8 -28z"/>
<path d="M3263 1511 c-7 -5 -25 -74 -49 -189 l-5 -23 162 3 c157 2 162 3 177
26 8 13 17 46 20 73 4 42 1 54 -18 74 -12 13 -34 28 -49 33 -29 10 -224 13
-238 3z m192 -102 c11 -34 -24 -73 -66 -74 -54 -2 -60 3 -53 44 9 51 10 51 64
51 41 0 50 -3 55 -21z"/>
<path d="M3655 1501 c-4 -9 -9 -27 -11 -41 -3 -14 -9 -41 -14 -60 -5 -19 -11
-48 -14 -65 l-5 -30 54 0 c41 0 56 4 59 15 18 63 37 173 32 185 -8 21 -93 18
-101 -4z"/>
<path d="M3846 1511 c-2 -3 -11 -42 -20 -86 -10 -44 -20 -88 -22 -97 -5 -17 9
-18 201 -16 197 3 206 4 210 23 3 11 12 49 20 85 22 99 22 99 -31 97 -46 -1
-47 -2 -116 -92 -38 -49 -73 -91 -76 -93 -4 -1 -20 37 -37 85 -16 49 -34 91
-39 95 -12 8 -85 8 -90 -1z"/>
<path d="M4398 1443 c-78 -133 -76 -125 -28 -125 61 0 67 3 89 43 13 22 25 39
26 37 3 -3 12 -46 14 -71 1 -4 22 -7 49 -5 51 3 51 4 39 73 -3 17 -6 44 -6 62
-1 46 -23 63 -85 63 l-52 0 -46 -77z"/>
<path d="M4764 1506 c-2 -6 -12 -49 -22 -97 l-18 -85 78 1 c43 1 82 5 86 9 4
5 -4 6 -18 4 -23 -3 -25 0 -24 30 3 56 9 62 63 62 41 0 51 -3 56 -20 9 -28
-19 -70 -48 -71 -12 -1 -4 -5 18 -8 22 -3 59 -4 83 -2 35 2 45 8 53 28 26 69
-4 135 -69 152 -52 14 -232 11 -238 -3z"/>
<path d="M5122 1491 c-4 -14 -8 -35 -8 -46 1 -20 6 -22 83 -24 31 -1 31 -2 22
-33 -15 -52 -13 -55 46 -57 l55 -1 6 40 c4 22 10 42 13 45 4 2 31 5 59 6 60 3
67 9 71 61 l2 37 -170 -1 -170 -1 -9 -26z"/>
<path d="M3004 1342 c-22 -2 -34 -9 -37 -23 -3 -10 -2 -20 1 -22 6 -3 145 -1
175 2 4 1 7 10 7 21 0 14 -7 20 -22 21 -13 0 -39 2 -58 2 -19 1 -49 1 -66 -1z"/>
<path d="M2984 1279 c-21 -5 -23 -7 -9 -9 11 -1 28 -2 37 -1 15 2 16 -2 7 -29
-27 -77 -155 -68 -142 11 l4 29 -59 0 -60 0 3 -47 c3 -71 3 -71 28 -94 63 -60
196 -55 280 11 37 29 82 128 60 131 -39 4 -125 3 -149 -2z"/>
<path d="M3217 1282 c-22 -5 -22 -32 1 -33 15 0 14 -1 -2 -8 -22 -9 -53 -118
-38 -133 5 -5 29 -8 53 -6 44 3 44 3 57 53 7 28 13 60 14 73 2 18 8 22 34 22
33 0 40 -10 51 -70 11 -60 26 -75 76 -78 62 -4 66 9 33 98 -16 44 -21 70 -14
70 6 0 9 3 5 6 -6 7 -240 12 -270 6z"/>
<path d="M3611 1282 c-6 -2 -11 -10 -11 -18 0 -10 14 -14 54 -14 53 0 78 11
55 26 -13 8 -80 12 -98 6z"/>
<path d="M3804 1275 c-8 -5 -16 -23 -18 -40 -2 -16 -6 -37 -10 -45 -3 -8 -7
-31 -8 -50 l-3 -35 47 -1 46 -2 12 51 c6 29 14 60 16 69 4 14 -4 18 -43 21
l-48 3 48 2 c26 1 47 7 47 12 0 6 0 13 0 17 0 11 -71 10 -86 -2z"/>
<path d="M3938 1279 c-23 -14 6 -29 56 -29 45 0 76 12 76 30 0 7 -120 6 -132
-1z"/>
<path d="M4096 1268 c-4 -16 3 -18 50 -18 41 0 54 4 54 15 0 8 -3 15 -7 16
-65 7 -92 3 -97 -13z"/>
<path d="M4305 1277 c-40 -22 -7 -28 145 -26 88 0 160 5 160 9 0 15 -22 23
-57 23 -52 -2 -55 -2 -48 -13 4 -6 -13 -10 -44 -10 -27 0 -51 5 -53 10 -4 13
-83 19 -103 7z"/>
<path d="M4720 1282 c-6 -2 -10 -9 -10 -16 0 -17 265 -15 282 2 7 7 8 12 3 13
-32 3 -267 3 -275 1z"/>
<path d="M5198 1273 c-12 -14 -4 -16 66 -14 69 1 64 18 -7 24 -31 2 -51 -1
-59 -10z"/>
<path d="M3597 1233 c-11 -20 -28 -113 -22 -123 8 -13 94 -10 103 4 7 12 7 13
17 71 4 22 9 43 12 48 2 4 -21 7 -51 7 -30 0 -57 -3 -59 -7z"/>
<path d="M3946 1225 c4 -8 11 -15 18 -16 6 0 19 -2 28 -4 9 -2 24 6 34 16 17
18 16 19 -34 19 -42 0 -50 -3 -46 -15z"/>
<path d="M4086 1213 c-4 -16 -9 -47 -12 -70 l-6 -43 48 3 48 3 13 49 c21 82
20 85 -36 85 -45 0 -49 -2 -55 -27z"/>
<path d="M4264 1207 c-21 -31 -54 -92 -54 -100 0 -2 22 -4 50 -4 43 -1 52 2
70 25 11 15 24 32 29 38 7 8 85 11 149 5 6 0 12 -14 12 -31 0 -33 23 -44 76
-38 25 3 29 7 28 33 0 17 -3 44 -7 60 -3 17 -6 33 -6 38 -1 4 -74 7 -163 7
l-163 0 -21 -33z"/>
<path d="M4710 1225 c7 -8 17 -12 23 -8 6 3 7 1 3 -6 -6 -9 -11 -9 -21 -1 -10
9 -15 0 -24 -40 -6 -29 -9 -56 -5 -61 6 -11 74 -12 91 -1 16 10 34 90 22 98
-5 3 -14 2 -21 -2 -7 -5 -8 -3 -4 5 5 7 14 10 21 7 7 -2 16 2 19 10 4 11 -7
14 -56 14 -52 0 -59 -2 -48 -15z"/>
<path d="M4880 1230 c0 -5 3 -10 8 -10 4 0 7 -13 8 -28 0 -15 7 -41 15 -57 13
-27 19 -30 62 -31 28 -1 51 4 53 10 2 6 -4 36 -14 66 l-19 55 -56 3 c-35 2
-57 -1 -57 -8z m60 -16 c0 -8 -19 -13 -24 -6 -3 5 1 9 9 9 8 0 15 -2 15 -3z"/>
<path d="M5185 1230 c-3 -5 0 -10 7 -10 10 0 10 -2 1 -8 -19 -12 -35 -95 -20
-104 17 -11 86 -6 96 6 5 6 12 29 15 51 4 22 9 48 12 58 5 15 -2 17 -50 17
-30 0 -58 -4 -61 -10z m65 -15 c0 -7 -30 -13 -34 -7 -3 4 4 9 15 9 10 1 19 0
19 -2z"/>
</g>
</svg>
